<?xml version="1.0" encoding="utf-8"?>
<svg xmlns="http://www.w3.org/2000/svg" viewBox="0 0 500 500" xmlns:bx="https://boxy-svg.com" width="500px" height="500px"><g style="" transform="matrix(0.234866, 0, 0, 0.218307, -1.104274, 200.864273)"><path style="stroke: rgb(0, 0, 0); paint-order: fill; stroke-width: 0px;" d="M 10.109 -27.416 C 29.029 -64.11 56.494 -96.651 86.855 -124.627 C 94.259 -131.449 109.294 -132.382 117.029 -125.939 C 171.509 -80.559 220.591 -28.66 266.716 25.191 C 273.534 33.151 275.695 45.925 272.882 56.021 C 269.127 69.5 247.037 112.666 220.144 101.937 C 151.292 74.468 82.805 44.517 19.686 5.644 C 9.917 -0.372 4.851 -17.219 10.109 -27.416 Z"/><path style="stroke: rgb(0, 0, 0); paint-order: fill; stroke-width: 0px;" d="M 279.354 -124.044 C 306.273 -131.07 335.014 -132.275 362.66 -129.161 C 371.727 -128.14 382.083 -121.118 384.175 -112.237 C 392.093 -78.623 392.913 -43.341 390.997 -8.86 C 390.521 -0.284 384.971 9.212 377.222 12.918 C 364.015 19.234 348.207 20.266 333.667 18.559 C 325.376 17.586 316.39 12.65 312.414 5.309 C 293.597 -29.431 276.937 -65.957 267.154 -104.235 C 265.234 -111.748 271.851 -122.086 279.354 -124.044 Z"/><path style="stroke: rgb(0, 0, 0); paint-order: fill; stroke-width: 0px;" d="M 477.786 -106.159 C 459.522 -71.209 447.649 -32.991 437.904 5.221 C 435.768 13.598 437.586 23.845 442.889 30.672 C 453.044 43.746 466.812 54.438 481.721 61.633 C 488.203 64.761 497.963 64.695 503.236 59.796 C 530.152 34.786 554.814 6.695 574.341 -24.428 C 578.781 -31.505 577.216 -43.064 571.717 -49.354 C 550.741 -73.348 525.916 -94.521 498.645 -111.013 C 492.536 -114.707 481.092 -112.486 477.786 -106.159 Z"/><path style="stroke: rgb(0, 0, 0); paint-order: fill; stroke-width: 0px;" d="M 524.168 102.651 C 567.569 80.851 612.751 61.903 659.425 48.47 C 665.904 46.605 674.52 52.384 676.873 58.702 C 689.741 93.262 699.203 129.491 703.242 166.147 C 704.064 173.609 698.234 184.022 690.779 184.907 C 644.444 190.41 597.172 189.432 550.8 184.251 C 540.812 183.135 531.245 175.345 526.398 166.54 C 518.822 152.778 516.32 136.324 515.772 120.624 C 515.541 114.016 518.259 105.619 524.168 102.651 Z"/><path style="stroke: rgb(0, 0, 0); paint-order: fill; stroke-width: 0px;" d="M 540.917 231.45 C 553.542 233.595 587.103 245.902 580.668 268.708 C 574.789 289.544 564.901 309.686 551.675 326.825 C 547.745 331.917 538.53 333.65 532.783 330.76 C 518.646 323.652 494.316 298.036 499.068 277.497 C 502.42 263.012 510.058 249.144 520.058 238.141 C 524.969 232.737 533.718 230.227 540.917 231.45 Z"/><path style="stroke: rgb(0, 0, 0); paint-order: fill; stroke-width: 0px;" d="M 406.051 333.114 C 417.369 325.664 431.318 321.002 444.867 321.046 C 453.476 321.074 463.66 325.657 467.594 333.315 C 497.217 390.985 523.508 450.747 543.215 512.512 C 546.173 521.783 541.952 535.135 533.561 540.065 C 500.83 559.295 464.475 573.664 427.169 580.691 C 417.483 582.516 403.896 574.518 402.23 564.803 C 390.547 496.672 387.816 426.967 388.956 357.851 C 389.121 347.829 397.679 338.625 406.051 333.114 Z"/><path style="stroke: rgb(0, 0, 0); paint-order: fill; stroke-width: 0px;" d="M 203.64 398.281 C 226.278 419.859 254.858 435.198 283.812 447.02 C 290.913 449.919 301.952 446.642 305.71 439.956 C 321.292 412.232 330.792 381.177 338.202 350.249 C 340.473 340.769 340.359 328.796 334.141 321.288 C 323.05 307.897 307.042 298.106 290.523 292.68 C 251.103 279.732 204.117 362.16 200.815 367.908 C 195.75 376.725 196.28 391.265 203.64 398.281 Z"/><path style="stroke: rgb(0, 0, 0); paint-order: fill; stroke-width: 0px;" d="M 244.178 227.165 C 243.926 208.81 241.359 189.491 232.699 173.305 C 227.792 164.133 216.743 157.506 206.387 156.529 C 146.195 150.847 85.249 148.324 25.029 153.703 C 15.368 154.566 4.174 164.857 4.721 174.541 C 7.268 219.602 18.327 264.366 33.682 306.807 C 37.076 316.187 48.979 326.11 58.581 323.407 C 119.465 306.265 177.608 279.592 233.759 250.475 C 241.314 246.557 244.295 235.675 244.178 227.165 Z"/><path d="M 372.478 61.166 Q 387.423 54.687 402.368 61.166 L 451.136 82.308 Q 466.081 88.787 472.271 104.428 L 492.472 155.469 Q 498.662 171.111 492.472 186.753 L 472.271 237.794 Q 466.081 253.435 451.136 259.914 L 402.368 281.056 Q 387.423 287.535 372.478 281.056 L 323.71 259.914 Q 308.765 253.435 302.575 237.794 L 282.374 186.753 Q 276.184 171.111 282.374 155.469 L 302.575 104.428 Q 308.765 88.787 323.71 82.308 Z" style="stroke: rgb(0, 0, 0); paint-order: fill; stroke-width: 0px;" transform="matrix(0.981747, 0.190193, -0.114209, 0.996467, 25.83602, -72.302335)"/></g><text style="font-family: Cantarell; font-size: 42px; font-weight: 800; stroke-width: 0px; white-space: pre;" transform="matrix(1.080002, 0, 0.07142, 1.068965, -51.592102, 30.042576)"><tspan x="208.905" y="188.634">SOLAR REACH</tspan><tspan x="208.905" dy="1em">​</tspan></text><defs/><text style="font-family: Cantarell; font-size: 28px; font-weight: 700; stroke-width: 0px; white-space: pre;" transform="matrix(1.464404, 0, -0.127039, 1.364493, -91.495209, -72.777321)" x="211.67" y="251.851">INITIATIVE</text><text style="font-family: Arial, sans-serif; font-size: 35.9px; stroke-width: 0px; white-space: pre;" x="436.912" y="289.734"> </text><text style="font-family: Arial, sans-serif; font-size: 35.9px; stroke-width: 0px; white-space: pre;" x="366.822" y="292.429"> </text></svg>