<?xml version="1.0" encoding="utf-8"?>
<svg xmlns="http://www.w3.org/2000/svg" viewBox="0 0 500 500" xmlns:bx="https://boxy-svg.com" width="500px" height="500px"><path style="paint-order: fill; stroke-opacity: 0; stroke: rgb(0, 0, 0); fill: rgb(245, 194, 17);" d="M 3.87 82.026 C 17.411 57.616 37.068 35.968 58.797 17.357 C 64.096 12.819 74.857 12.198 80.392 16.485 C 119.384 46.673 154.512 81.198 187.523 117.022 C 192.403 122.317 193.95 130.815 191.936 137.531 C 189.249 146.498 173.439 175.214 154.192 168.077 C 104.914 149.803 55.898 129.879 10.724 104.019 C 3.733 100.017 0.107 88.809 3.87 82.026 Z"/><path style="stroke: rgb(0, 0, 0); paint-order: fill; stroke-opacity: 0; fill: rgb(229, 165, 10);" d="M 196.568 17.745 C 215.834 13.071 236.404 12.27 256.19 14.341 C 262.68 15.02 270.091 19.692 271.589 25.6 C 277.255 47.961 277.842 71.432 276.471 94.37 C 276.13 100.075 272.158 106.392 266.612 108.858 C 257.16 113.059 245.846 113.746 235.44 112.61 C 229.506 111.963 223.075 108.679 220.229 103.796 C 206.762 80.685 194.838 56.387 187.837 30.923 C 186.463 25.925 191.198 19.048 196.568 17.745 Z"/><path style="stroke: rgb(0, 0, 0); paint-order: fill; stroke-opacity: 0; fill: rgb(229, 165, 10);" d="M 338.586 29.643 C 325.514 52.893 317.017 78.317 310.042 103.737 C 308.514 109.31 309.815 116.127 313.61 120.668 C 320.878 129.366 330.732 136.478 341.402 141.265 C 346.041 143.346 353.026 143.302 356.8 140.043 C 376.064 123.405 393.715 104.718 407.69 84.014 C 410.868 79.306 409.748 71.616 405.812 67.432 C 390.8 51.47 373.032 37.385 353.515 26.414 C 349.142 23.957 340.952 25.434 338.586 29.643 Z"/><path style="paint-order: fill; stroke-opacity: 0; stroke: rgb(0, 0, 0); fill: rgb(245, 194, 17);" d="M 371.781 168.552 C 402.843 154.049 435.18 141.444 468.585 132.508 C 473.222 131.268 479.388 135.112 481.072 139.315 C 490.282 162.306 497.054 186.407 499.944 210.792 C 500.533 215.756 496.36 222.683 491.025 223.271 C 457.863 226.932 424.03 226.282 390.842 222.835 C 383.693 222.093 376.846 216.91 373.377 211.053 C 367.955 201.898 366.165 190.952 365.772 180.508 C 365.607 176.112 367.552 170.526 371.781 168.552 Z"/><path style="stroke: rgb(0, 0, 0); paint-order: fill; stroke-opacity: 0; fill: rgb(229, 165, 10);" d="M 383.769 254.234 C 392.804 255.661 416.824 263.848 412.218 279.019 C 408.011 292.88 400.934 306.279 391.468 317.681 C 388.655 321.068 382.06 322.221 377.947 320.298 C 367.829 315.57 350.416 298.529 353.817 284.866 C 356.216 275.23 361.683 266.004 368.84 258.685 C 372.355 255.09 378.616 253.42 383.769 254.234 Z"/><path style="paint-order: fill; stroke-opacity: 0; stroke: rgb(0, 0, 0); fill: rgb(245, 194, 17);" d="M 287.245 321.864 C 295.345 316.908 305.329 313.807 315.026 313.836 C 321.187 313.855 328.476 316.904 331.291 321.998 C 352.493 360.362 371.309 400.118 385.413 441.207 C 387.53 447.374 384.509 456.257 378.504 459.536 C 355.078 472.329 329.059 481.888 302.359 486.562 C 295.427 487.776 285.703 482.456 284.511 475.993 C 276.149 430.67 274.194 384.299 275.01 338.32 C 275.128 331.653 281.253 325.531 287.245 321.864 Z"/><path style="stroke: rgb(0, 0, 0); paint-order: fill; stroke-opacity: 0; fill: rgb(229, 165, 10);" d="M 142.38 365.216 C 158.582 379.571 179.037 389.775 199.759 397.639 C 204.841 399.568 212.742 397.388 215.431 392.94 C 226.583 374.497 233.382 353.838 238.686 333.263 C 240.311 326.957 240.23 318.992 235.779 313.997 C 227.841 305.089 216.385 298.576 204.562 294.966 C 176.349 286.353 142.721 341.187 140.358 345.011 C 136.733 350.876 137.112 360.549 142.38 365.216 Z"/><path style="stroke: rgb(0, 0, 0); paint-order: fill; stroke-opacity: 0; fill: rgb(245, 194, 17);" d="M 171.393 251.383 C 171.213 239.173 169.375 226.321 163.177 215.553 C 159.665 209.452 151.758 205.043 144.346 204.393 C 101.267 200.613 57.648 198.935 14.548 202.513 C 7.634 203.087 -0.378 209.933 0.014 216.376 C 1.837 246.352 9.752 276.131 20.741 304.364 C 23.17 310.604 31.689 317.205 38.561 315.407 C 82.136 304.003 123.749 286.26 163.936 266.89 C 169.343 264.283 171.477 257.044 171.393 251.383 Z"/><path d="M 376.753 97.791 Q 387.423 93.47 398.093 97.791 L 432.91 111.89 Q 443.579 116.211 447.999 126.642 L 462.42 160.68 Q 466.84 171.111 462.42 181.542 L 447.999 215.58 Q 443.579 226.011 432.91 230.332 L 398.093 244.431 Q 387.423 248.752 376.753 244.431 L 341.936 230.332 Q 331.267 226.011 326.847 215.58 L 312.426 181.542 Q 308.006 171.111 312.426 160.68 L 326.847 126.642 Q 331.267 116.211 341.936 111.89 Z" style="stroke: rgb(0, 0, 0); paint-order: fill; stroke-opacity: 0; fill: rgb(229, 165, 10);" transform="matrix(0.984171, 0.17722, -0.122569, 0.994012, -86.961287, -24.133967)"/><defs/></svg>